<?xml version="1.0" encoding="iso-8859-1"?>
<!-- Generator: Adobe Illustrator 19.0.0, SVG Export Plug-In . SVG Version: 6.00 Build 0)  -->
<svg version="1.1" id="Layer_1" xmlns="http://www.w3.org/2000/svg" xmlns:xlink="http://www.w3.org/1999/xlink" x="0px" y="0px"
	 viewBox="0 0 512 512" style="enable-background:new 0 0 512 512;" xml:space="preserve">
<g>
	<g>
		<path d="M318.061,0c-85.92,0-158.956,56.168-184.353,133.708C56.168,159.105,0,232.141,0,318.061
			C0,424.999,87.001,512,193.939,512c85.92,0,158.956-56.168,184.353-133.708C455.832,352.895,512,279.859,512,193.939
			C512,87.001,424.999,0,318.061,0z M193.939,465.455c-81.273,0-147.394-66.121-147.394-147.394
			c0-56.066,31.468-104.915,77.666-129.828c-0.054,1.896-0.09,3.798-0.09,5.706c0,106.938,87.001,193.939,193.939,193.939
			c1.908,0,3.81-0.036,5.706-0.09C298.854,433.987,250.005,465.455,193.939,465.455z M387.789,323.767
			c0.054-1.896,0.09-3.798,0.09-5.706c0-106.938-87.001-193.939-193.939-193.939c-1.908,0-3.81,0.036-5.706,0.09
			c24.913-46.198,73.762-77.666,129.828-77.666c81.273,0,147.394,66.121,147.394,147.394
			C465.455,250.005,433.987,298.854,387.789,323.767z"/>
	</g>
</g>
<g>
</g>
<g>
</g>
<g>
</g>
<g>
</g>
<g>
</g>
<g>
</g>
<g>
</g>
<g>
</g>
<g>
</g>
<g>
</g>
<g>
</g>
<g>
</g>
<g>
</g>
<g>
</g>
<g>
</g>
</svg>
