<?xml version="1.0" encoding="iso-8859-1"?>
<!-- Generator: Adobe Illustrator 19.0.0, SVG Export Plug-In . SVG Version: 6.00 Build 0)  -->
<svg version="1.1" id="Capa_1" xmlns="http://www.w3.org/2000/svg" xmlns:xlink="http://www.w3.org/1999/xlink" x="0px" y="0px"
	 viewBox="0 0 512 512" style="enable-background:new 0 0 512 512;" xml:space="preserve">
<g>
	<g>
		<g>
			<path d="M361.858,161.858L216,307.716l-65.858-65.858c-7.81-7.811-20.473-7.81-28.284,0c-7.811,7.81-7.811,20.473,0,28.284l80,80
				C205.763,354.047,210.881,356,216,356s10.237-1.953,14.142-5.858l160-160c7.811-7.81,7.811-20.473,0-28.284
				C382.332,154.047,369.668,154.047,361.858,161.858z"/>
			<path d="M452,0H60C26.916,0,0,26.916,0,60v392c0,33.084,26.916,60,60,60h392c33.084,0,60-26.916,60-60V60
				C512,26.916,485.084,0,452,0z M472,452c0,11.028-8.972,20-20,20H60c-11.028,0-20-8.972-20-20V60c0-11.028,8.972-20,20-20h392
				c11.028,0,20,8.972,20,20V452z"/>
		</g>
	</g>
</g>
<g>
</g>
<g>
</g>
<g>
</g>
<g>
</g>
<g>
</g>
<g>
</g>
<g>
</g>
<g>
</g>
<g>
</g>
<g>
</g>
<g>
</g>
<g>
</g>
<g>
</g>
<g>
</g>
<g>
</g>
</svg>
