<?xml version="1.0" encoding="UTF-8" standalone="no"?>
<svg
   xmlns:dc="http://purl.org/dc/elements/1.1/"
   xmlns:cc="http://creativecommons.org/ns#"
   xmlns:rdf="http://www.w3.org/1999/02/22-rdf-syntax-ns#"
   xmlns:svg="http://www.w3.org/2000/svg"
   xmlns="http://www.w3.org/2000/svg"
   xml:space="preserve"
   style="enable-background:new 0 0 612.02 612.02;"
   viewBox="0 0 612.02 612.02"
   height="612.02px"
   width="612.02px"
   y="0px"
   x="0px"
   id="Capa_1"
   version="1.1"><metadata
   id="metadata44"><rdf:RDF><cc:Work
       rdf:about=""><dc:format>image/svg+xml</dc:format><dc:type
         rdf:resource="http://purl.org/dc/dcmitype/StillImage" /><dc:title></dc:title></cc:Work></rdf:RDF></metadata><defs
   id="defs42">
		
	
			
		</defs>
<g
   id="g7">
	<path
   id="path2"
   d="M 556.86892,461.97665 C 556.42958,308.8725 556.78932,256.99933 553.3592,56.494359 l -400.81228,1.16129 c -8.549,-32.933001 -38.192,-57.37500048 -73.802997,-57.37500048 -42.247,0 -76.5000002,34.25300048 -76.5000002,76.50000048 0,35.611001 24.4420002,65.254001 57.3750002,73.803001 l 1.161328,407.80325 c 117.958309,-1.72576 214.618849,-3.48125 403.179669,-3.48125 8.529,32.934 38.192,57.375 73.804,57.375 42.247,0 76.5,-34.253 76.5,-76.5 -0.02,-35.611 -24.461,-65.255 -57.395,-73.804 z M 40.493923,76.780649 c 0,-21.133 17.117,-38.25 38.25,-38.25 21.132999,0 38.249997,17.117 38.249997,38.25 0,21.133005 -17.116998,38.250001 -38.249997,38.250001 -21.133,0 -38.25,-17.116996 -38.25,-38.250001 z M 463.93992,516.65565 c -166.70871,3.72286 -231.85718,2.61699 -366.070998,4.5467 v -370.6187 c 26.793998,-6.942 47.735998,-27.884 54.677998,-54.678001 l 362.50977,-1.161214 c 2.29258,116.826275 3.56223,228.960135 3.56223,367.252215 -26.794,6.922 -47.736,27.865 -54.679,54.659 z m 73.804,57.375 c -21.133,0 -38.25,-17.117 -38.25,-38.25 0,-21.133 17.117,-38.25 38.25,-38.25 21.133,0 38.25,17.117 38.25,38.25 0,21.133 -17.117,38.25 -38.25,38.25 z" />
</g>
<g
   id="g9">
</g>
<g
   id="g11">
</g>
<g
   id="g13">
</g>
<g
   id="g15">
</g>
<g
   id="g17">
</g>
<g
   id="g19">
</g>
<g
   id="g21">
</g>
<g
   id="g23">
</g>
<g
   id="g25">
</g>
<g
   id="g27">
</g>
<g
   id="g29">
</g>
<g
   id="g31">
</g>
<g
   id="g33">
</g>
<g
   id="g35">
</g>
<g
   id="g37">
</g>
</svg>