<?xml version="1.0" encoding="iso-8859-1"?>
<!-- Generator: Adobe Illustrator 18.0.0, SVG Export Plug-In . SVG Version: 6.00 Build 0)  -->
<!DOCTYPE svg PUBLIC "-//W3C//DTD SVG 1.1//EN" "http://www.w3.org/Graphics/SVG/1.1/DTD/svg11.dtd">
<svg version="1.1" id="Capa_1" xmlns="http://www.w3.org/2000/svg" xmlns:xlink="http://www.w3.org/1999/xlink" x="0px" y="0px"
	 viewBox="0 0 60 60" style="enable-background:new 0 0 60 60;" xml:space="preserve">
<g>
	<path d="M46.016,0H3.984L25,27.652L46.016,0z M41.984,2L25,24.348L8.016,2H41.984z"/>
	<path d="M3.984,60h42.031L25,32.348L3.984,60z M8.016,58L25,35.652L41.984,58H8.016z"/>
	<path d="M42,29c-0.553,0-1,0.447-1,1s0.447,1,1,1h1c0.553,0,1-0.447,1-1s-0.447-1-1-1H42z"/>
	<path d="M27,29c-0.553,0-1,0.447-1,1s0.447,1,1,1h1c0.553,0,1-0.447,1-1s-0.447-1-1-1H27z"/>
	<path d="M32,29c-0.553,0-1,0.447-1,1s0.447,1,1,1h1c0.553,0,1-0.447,1-1s-0.447-1-1-1H32z"/>
	<path d="M37,29c-0.553,0-1,0.447-1,1s0.447,1,1,1h1c0.553,0,1-0.447,1-1s-0.447-1-1-1H37z"/>
	<path d="M22,29c-0.553,0-1,0.447-1,1s0.447,1,1,1h1c0.553,0,1-0.447,1-1s-0.447-1-1-1H22z"/>
	<path d="M17,29c-0.553,0-1,0.447-1,1s0.447,1,1,1h1c0.553,0,1-0.447,1-1s-0.447-1-1-1H17z"/>
	<path d="M3,29H2c-0.553,0-1,0.447-1,1s0.447,1,1,1h1c0.553,0,1-0.447,1-1S3.553,29,3,29z"/>
	<path d="M47,31h1c0.553,0,1-0.447,1-1s-0.447-1-1-1h-1c-0.553,0-1,0.447-1,1S46.447,31,47,31z"/>
	<path d="M7,29c-0.553,0-1,0.447-1,1s0.447,1,1,1h1c0.553,0,1-0.447,1-1s-0.447-1-1-1H7z"/>
	<path d="M12,29c-0.553,0-1,0.447-1,1s0.447,1,1,1h1c0.553,0,1-0.447,1-1s-0.447-1-1-1H12z"/>
	<path d="M52.986,49.034l-4.815-1.29C54.717,44.327,59,37.433,59,30c0-8.099-5.075-15.567-12.629-18.585
		c-0.513-0.205-1.095,0.045-1.3,0.558s0.045,1.095,0.558,1.3C52.431,15.989,57,22.712,57,30c0,7.001-4.224,13.469-10.545,16.363
		l1.581-5.902c0.143-0.533-0.174-1.082-0.707-1.225c-0.533-0.141-1.082,0.174-1.225,0.707l-2.07,7.728
		c-0.017,0.062-0.007,0.123-0.011,0.185c-0.008,0.052-0.01,0.103-0.01,0.156c0.003,0.037,0.007,0.071,0.014,0.107
		c0.008,0.069,0.004,0.138,0.028,0.207C44.197,48.74,44.585,49,45,49c0.027,0,0.054-0.011,0.081-0.014l7.388,1.979
		C52.556,50.989,52.643,51,52.729,51c0.441,0,0.846-0.295,0.965-0.741C53.836,49.726,53.52,49.177,52.986,49.034z"/>
</g>
<g>
</g>
<g>
</g>
<g>
</g>
<g>
</g>
<g>
</g>
<g>
</g>
<g>
</g>
<g>
</g>
<g>
</g>
<g>
</g>
<g>
</g>
<g>
</g>
<g>
</g>
<g>
</g>
<g>
</g>
</svg>
