<?xml version="1.0" encoding="iso-8859-1"?>
<!-- Generator: Adobe Illustrator 18.0.0, SVG Export Plug-In . SVG Version: 6.00 Build 0)  -->
<!DOCTYPE svg PUBLIC "-//W3C//DTD SVG 1.1//EN" "http://www.w3.org/Graphics/SVG/1.1/DTD/svg11.dtd">
<svg version="1.1" id="Capa_1" xmlns="http://www.w3.org/2000/svg" xmlns:xlink="http://www.w3.org/1999/xlink" x="0px" y="0px"
	 viewBox="0 0 60 60" style="enable-background:new 0 0 60 60;" xml:space="preserve">
<g>
	<path d="M0,56.016L27.652,35L0,13.984V56.016z M2,18.016L24.348,35L2,51.984V18.016z"/>
	<path d="M32.348,35L60,56.016V13.984L32.348,35z M58,51.984L35.652,35L58,18.016V51.984z"/>
	<path d="M30,46c-0.553,0-1,0.447-1,1v1c0,0.553,0.447,1,1,1s1-0.447,1-1v-1C31,46.447,30.553,46,30,46z"/>
	<path d="M30,41c-0.553,0-1,0.447-1,1v1c0,0.553,0.447,1,1,1s1-0.447,1-1v-1C31,41.447,30.553,41,30,41z"/>
	<path d="M30,51c-0.553,0-1,0.447-1,1v1c0,0.553,0.447,1,1,1s1-0.447,1-1v-1C31,51.447,30.553,51,30,51z"/>
	<path d="M30,56c-0.553,0-1,0.447-1,1v1c0,0.553,0.447,1,1,1s1-0.447,1-1v-1C31,56.447,30.553,56,30,56z"/>
	<path d="M30,36c-0.553,0-1,0.447-1,1v1c0,0.553,0.447,1,1,1s1-0.447,1-1v-1C31,36.447,30.553,36,30,36z"/>
	<path d="M30,21c-0.553,0-1,0.447-1,1v1c0,0.553,0.447,1,1,1s1-0.447,1-1v-1C31,21.447,30.553,21,30,21z"/>
	<path d="M30,11c-0.553,0-1,0.447-1,1v1c0,0.553,0.447,1,1,1s1-0.447,1-1v-1C31,11.447,30.553,11,30,11z"/>
	<path d="M30,16c-0.553,0-1,0.447-1,1v1c0,0.553,0.447,1,1,1s1-0.447,1-1v-1C31,16.447,30.553,16,30,16z"/>
	<path d="M30,31c-0.553,0-1,0.447-1,1v1c0,0.553,0.447,1,1,1s1-0.447,1-1v-1C31,31.447,30.553,31,30,31z"/>
	<path d="M30,26c-0.553,0-1,0.447-1,1v1c0,0.553,0.447,1,1,1s1-0.447,1-1v-1C31,26.447,30.553,26,30,26z"/>
	<path d="M11.973,14.929c0.512,0.204,1.094-0.045,1.3-0.558C15.989,7.569,22.712,3,30,3c7.001,0,13.469,4.224,16.363,10.545
		l-5.902-1.581c-0.531-0.142-1.082,0.174-1.225,0.707s0.174,1.082,0.707,1.225l7.728,2.07C47.758,15.989,47.845,16,47.931,16
		c0.012,0,0.022-0.005,0.034-0.006C47.976,15.995,47.988,16,48,16c0.107,0,0.218-0.018,0.325-0.055
		c0.434-0.149,0.682-0.568,0.656-1.005l1.985-7.41c0.143-0.533-0.174-1.082-0.707-1.225c-0.531-0.142-1.082,0.174-1.225,0.707
		l-1.29,4.815C44.327,5.283,37.433,1,30,1c-8.099,0-15.567,5.075-18.585,12.629C11.21,14.142,11.46,14.724,11.973,14.929z"/>
</g>
<g>
</g>
<g>
</g>
<g>
</g>
<g>
</g>
<g>
</g>
<g>
</g>
<g>
</g>
<g>
</g>
<g>
</g>
<g>
</g>
<g>
</g>
<g>
</g>
<g>
</g>
<g>
</g>
<g>
</g>
</svg>
