<?xml version="1.0" encoding="iso-8859-1"?>
<!-- Generator: Adobe Illustrator 19.0.0, SVG Export Plug-In . SVG Version: 6.00 Build 0)  -->
<svg version="1.1" id="Capa_1" xmlns="http://www.w3.org/2000/svg" xmlns:xlink="http://www.w3.org/1999/xlink" x="0px" y="0px"
	 viewBox="0 0 489.3 489.3" style="enable-background:new 0 0 489.3 489.3;" xml:space="preserve">
<g>
	<g>
		<path d="M447.4,232.325h-164c-6.8,0-12.3,5.5-12.3,12.3c0,6.8,5.5,12.2,12.3,12.2h164l-41.7,41.7c-4.8,4.8-4.8,12.5,0,17.3
			c2.4,2.4,5.5,3.6,8.7,3.6s6.3-1.2,8.7-3.6l62.6-62.6c4.8-4.8,4.8-12.5,0-17.3l-62.6-62.6c-4.8-4.8-12.5-4.8-17.3,0
			s-4.8,12.5,0,17.3L447.4,232.325z"/>
		<path d="M66.2,315.825c2.4,2.4,5.5,3.6,8.7,3.6s6.3-1.2,8.7-3.6c4.8-4.8,4.8-12.5,0-17.3l-41.7-41.7h164c6.8,0,12.3-5.5,12.3-12.2
			s-5.5-12.3-12.3-12.3h-164l41.6-41.7c4.8-4.8,4.8-12.5,0-17.3s-12.5-4.8-17.3,0l-62.6,62.6c-4.8,4.8-4.8,12.5,0,17.3L66.2,315.825
			z"/>
		<path d="M190.6,83.525l41.7-41.7v164c0,6.8,5.5,12.3,12.3,12.3c6.8,0,12.3-5.5,12.3-12.3v-164l41.7,41.7c2.4,2.4,5.5,3.6,8.7,3.6
			s6.3-1.2,8.7-3.6c4.8-4.8,4.8-12.5,0-17.3l-62.6-62.6c-4.6-4.6-12.7-4.6-17.3,0l-62.6,62.6c-4.8,4.8-4.8,12.5,0,17.3
			C178.1,88.325,185.9,88.325,190.6,83.525z"/>
		<path d="M244.6,271.025c-6.8,0-12.3,5.5-12.3,12.3v164l-41.7-41.7c-4.8-4.8-12.5-4.8-17.3,0s-4.8,12.5,0,17.3l62.6,62.6
			c2.3,2.3,5.4,3.6,8.7,3.6c3.2,0,6.4-1.3,8.7-3.6l62.6-62.6c4.8-4.8,4.8-12.5,0-17.3s-12.5-4.8-17.3,0l-41.7,41.7v-164
			C256.8,276.525,251.4,271.025,244.6,271.025z"/>
	</g>
</g>
<g>
</g>
<g>
</g>
<g>
</g>
<g>
</g>
<g>
</g>
<g>
</g>
<g>
</g>
<g>
</g>
<g>
</g>
<g>
</g>
<g>
</g>
<g>
</g>
<g>
</g>
<g>
</g>
<g>
</g>
</svg>
