<?xml version="1.0" encoding="iso-8859-1"?>
<!-- Generator: Adobe Illustrator 19.0.0, SVG Export Plug-In . SVG Version: 6.00 Build 0)  -->
<svg version="1.1" id="Capa_1" xmlns="http://www.w3.org/2000/svg" xmlns:xlink="http://www.w3.org/1999/xlink" x="0px" y="0px"
	 viewBox="0 0 511.999 511.999" style="enable-background:new 0 0 511.999 511.999;" xml:space="preserve">
<g>
	<g>
		<path d="M484.584,30.281c-1.742-1.891-4.328-2.76-6.861-2.3l-66.02,12.004c-4.076,0.741-6.78,4.647-6.039,8.723
			c0.741,4.077,4.641,6.782,8.723,6.039l43.114-7.839l-105.108,82.585c-3.258,2.56-3.823,7.277-1.264,10.534
			c1.48,1.883,3.681,2.867,5.904,2.867c1.623,0,3.256-0.524,4.63-1.603l102.894-80.845l-10.743,39.989
			c-1.075,4.002,1.297,8.117,5.298,9.192c0.653,0.175,1.307,0.259,1.952,0.259c3.311,0,6.341-2.209,7.24-5.557l18.005-67.02
			C486.978,34.825,486.325,32.173,484.584,30.281z"/>
	</g>
</g>
<g>
	<g>
		<path d="M504.22,0H228.991c-4.143,0-7.502,3.358-7.502,7.502c0,4.144,3.359,7.502,7.502,7.502h267.726v309.089H279.356v-83.67
			c0-4.144-3.358-7.502-7.502-7.502H120.653V15.004h55.323c4.143,0,7.502-3.358,7.502-7.502c0-4.144-3.359-7.502-7.503-7.502H113.15
			c-4.143,0-7.502,3.358-7.502,7.502v225.419H7.78c-4.143,0-7.502,3.358-7.502,7.502v264.074c0,4.144,3.359,7.502,7.502,7.502
			h264.075c4.144,0,7.502-3.358,7.502-7.502v-41.496c0-4.144-3.358-7.502-7.502-7.502c-4.144,0-7.502,3.358-7.502,7.502v33.994
			H15.281v-249.07h249.07v161.293c0,4.144,3.358,7.502,7.502,7.502c4.144,0,7.502-3.358,7.502-7.502v-70.122H504.22
			c4.144,0,7.502-3.358,7.502-7.502V7.502C511.721,3.358,508.363,0,504.22,0z"/>
	</g>
</g>
<g>
</g>
<g>
</g>
<g>
</g>
<g>
</g>
<g>
</g>
<g>
</g>
<g>
</g>
<g>
</g>
<g>
</g>
<g>
</g>
<g>
</g>
<g>
</g>
<g>
</g>
<g>
</g>
<g>
</g>
</svg>
