<?xml version="1.0" encoding="iso-8859-1"?>
<!-- Generator: Adobe Illustrator 19.0.0, SVG Export Plug-In . SVG Version: 6.00 Build 0)  -->
<svg version="1.1" id="Layer_1" xmlns="http://www.w3.org/2000/svg" xmlns:xlink="http://www.w3.org/1999/xlink" x="0px" y="0px"
	 viewBox="0 0 489.4 489.4" style="enable-background:new 0 0 489.4 489.4;" xml:space="preserve">
<g>
	<g>
		<path fill="#FFFFFF"  d="M483.4,0H103.6c-3.3,0-6,2.7-6,6v379.7c0,3.3,2.7,6,6,6h379.7c3.4,0.1,6.1-2.6,6.1-5.9V6C489.4,2.7,486.7,0,483.4,0z
			 M109.6,379.8V12h367.7v367.8H109.6z"/>
	</g>
</g>
<g>
	<g>
		<path fill="#FFFFFF"  d="M385.7,477.4H12V103.6c0-3.3-2.7-6-6-6s-6,2.7-6,6v379.8c0,3.3,2.7,6,6,6h379.7c3.3,0,6-2.7,6-6S389,477.4,385.7,477.4z"
			/>
	</g>
</g>
<g>
	<g>
<!--		<path d="M375.5,189.9h-76v-76c0-3.3-2.7-6-6-6s-6,2.7-6,6v76h-76c-3.3,0-6,2.7-6,6s2.7,6,6,6h76v76c0,3.3,2.7,6,6,6s6-2.7,6-6v-76-->
<!--			h76c3.3,0,6-2.7,6-6S378.8,189.9,375.5,189.9z"/>-->
	</g>
</g>
</svg>