<?xml version="1.0" encoding="iso-8859-1"?>
<!-- Generator: Adobe Illustrator 19.0.0, SVG Export Plug-In . SVG Version: 6.00 Build 0)  -->
<svg version="1.1" id="Layer_1" xmlns="http://www.w3.org/2000/svg" xmlns:xlink="http://www.w3.org/1999/xlink" x="0px" y="0px"
	 viewBox="0 0 512 512" style="enable-background:new 0 0 512 512;" xml:space="preserve" fill="#FFFFFF" >
<g>
	<g>
		<path d="M256,293.168c-4.428,0-8.017,3.589-8.017,8.017v30.124c0,4.427,3.588,8.017,8.017,8.017c4.428,0,8.017-3.589,8.017-8.017
			v-30.124C264.017,296.757,260.428,293.168,256,293.168z"/>
	</g>
</g>
<g>
	<g>
		<path d="M256,172.674c-4.428,0-8.017,3.589-8.017,8.017v30.124c0,4.427,3.588,8.017,8.017,8.017c4.428,0,8.017-3.589,8.017-8.017
			v-30.124C264.017,176.264,260.428,172.674,256,172.674z"/>
	</g>
</g>
<g>
	<g>
		<path d="M256,353.415c-4.428,0-8.017,3.589-8.017,8.017v30.124c0,4.427,3.588,8.017,8.017,8.017c4.428,0,8.017-3.589,8.017-8.017
			v-30.124C264.017,357.004,260.428,353.415,256,353.415z"/>
	</g>
</g>
<g>
	<g>
		<path d="M256,112.427c-4.428,0-8.017,3.589-8.017,8.017v30.124c0,4.427,3.588,8.017,8.017,8.017c4.428,0,8.017-3.589,8.017-8.017
			v-30.124C264.017,116.017,260.428,112.427,256,112.427z"/>
	</g>
</g>
<g>
	<g>
		<path d="M150.568,247.983h-30.124c-4.428,0-8.017,3.589-8.017,8.017s3.588,8.017,8.017,8.017h30.124
			c4.428,0,8.017-3.589,8.017-8.017S154.996,247.983,150.568,247.983z"/>
	</g>
</g>
<g>
	<g>
		<path d="M210.815,247.983H180.69c-4.428,0-8.017,3.589-8.017,8.017s3.588,8.017,8.017,8.017h30.125
			c4.428,0,8.017-3.589,8.017-8.017S215.243,247.983,210.815,247.983z"/>
	</g>
</g>
<g>
	<g>
		<path d="M271.062,247.983h-7.045v-7.045c0-4.427-3.588-8.017-8.017-8.017c-4.428,0-8.017,3.589-8.017,8.017v7.045h-7.045
			c-4.428,0-8.017,3.589-8.017,8.017s3.588,8.017,8.017,8.017h7.045v7.045c0,4.427,3.588,8.017,8.017,8.017
			c4.428,0,8.017-3.589,8.017-8.017v-7.045h7.045c4.428,0,8.017-3.589,8.017-8.017S275.489,247.983,271.062,247.983z"/>
	</g>
</g>
<g>
	<g>
		<path d="M391.555,247.983H361.43c-4.428,0-8.017,3.589-8.017,8.017s3.588,8.017,8.017,8.017h30.125
			c4.428,0,8.017-3.589,8.017-8.017S395.983,247.983,391.555,247.983z"/>
	</g>
</g>
<g>
	<g>
		<path d="M331.308,247.983h-30.124c-4.428,0-8.017,3.589-8.017,8.017s3.588,8.017,8.017,8.017h30.124
			c4.428,0,8.017-3.589,8.017-8.017S335.736,247.983,331.308,247.983z"/>
	</g>
</g>
<g>
	<g>
		<path d="M439.85,66.271H72.15c-4.428,0-8.017,3.589-8.017,8.017v363.424c0,4.427,3.588,8.017,8.017,8.017H439.85
			c4.428,0,8.017-3.589,8.017-8.017V74.288C447.866,69.861,444.278,66.271,439.85,66.271z M431.833,247.983h-10.154
			c-4.428,0-8.017,3.589-8.017,8.017s3.588,8.017,8.017,8.017h10.154v165.678H264.017v-8.017c0-4.427-3.588-8.017-8.017-8.017
			c-4.428,0-8.017,3.589-8.017,8.017v8.017H80.167V264.017h10.155c4.428,0,8.017-3.589,8.017-8.017s-3.588-8.017-8.017-8.017H80.167
			V82.305h167.816v8.017c0,4.427,3.588,8.017,8.017,8.017c4.428,0,8.017-3.589,8.017-8.017v-8.017h167.816V247.983z"/>
	</g>
</g>
<g>
	<g>
		<path d="M439.85,6.413c-4.428,0-8.017,3.589-8.017,8.017v34.205c0,4.427,3.588,8.017,8.017,8.017c4.428,0,8.017-3.589,8.017-8.017
			V14.43C447.866,10.003,444.278,6.413,439.85,6.413z"/>
	</g>
</g>
<g>
	<g>
		<path d="M503.983,66.271h-34.205c-4.428,0-8.017,3.589-8.017,8.017s3.588,8.017,8.017,8.017h34.205
			c4.428,0,8.017-3.589,8.017-8.017S508.412,66.271,503.983,66.271z"/>
	</g>
</g>
<g>
	<g>
		<path d="M72.15,6.413c-4.428,0-8.017,3.589-8.017,8.017v34.205c0,4.427,3.588,8.017,8.017,8.017c4.428,0,8.017-3.589,8.017-8.017
			V14.43C80.167,10.003,76.579,6.413,72.15,6.413z"/>
	</g>
</g>
<g>
	<g>
		<path d="M42.221,66.271H8.017C3.588,66.271,0,69.861,0,74.288s3.588,8.017,8.017,8.017h34.205c4.428,0,8.017-3.589,8.017-8.017
			S46.65,66.271,42.221,66.271z"/>
	</g>
</g>
<g>
	<g>
		<path d="M439.85,455.349c-4.428,0-8.017,3.589-8.017,8.017v34.205c0,4.427,3.588,8.017,8.017,8.017
			c4.428,0,8.017-3.589,8.017-8.017v-34.205C447.866,458.938,444.278,455.349,439.85,455.349z"/>
	</g>
</g>
<g>
	<g>
		<path d="M503.983,429.695h-34.205c-4.428,0-8.017,3.589-8.017,8.017s3.588,8.017,8.017,8.017h34.205
			c4.428,0,8.017-3.589,8.017-8.017S508.412,429.695,503.983,429.695z"/>
	</g>
</g>
<g>
	<g>
		<path d="M72.15,455.349c-4.428,0-8.017,3.589-8.017,8.017v34.205c0,4.427,3.588,8.017,8.017,8.017
			c4.428,0,8.017-3.589,8.017-8.017v-34.205C80.167,458.938,76.579,455.349,72.15,455.349z"/>
	</g>
</g>
<g>
	<g>
		<path d="M42.221,429.695H8.017c-4.428,0-8.017,3.589-8.017,8.017s3.588,8.017,8.017,8.017h34.205c4.428,0,8.017-3.589,8.017-8.017
			S46.65,429.695,42.221,429.695z"/>
	</g>
</g>
<g>
</g>
<g>
</g>
<g>
</g>
<g>
</g>
<g>
</g>
<g>
</g>
<g>
</g>
<g>
</g>
<g>
</g>
<g>
</g>
<g>
</g>
<g>
</g>
<g>
</g>
<g>
</g>
<g>
</g>
</svg>
