<?xml version="1.0" encoding="iso-8859-1"?>
<!-- Generator: Adobe Illustrator 19.0.0, SVG Export Plug-In . SVG Version: 6.00 Build 0)  -->
<svg version="1.1" id="Capa_1" xmlns="http://www.w3.org/2000/svg" xmlns:xlink="http://www.w3.org/1999/xlink" x="0px" y="0px"
	 viewBox="0 0 512.002 512.002" style="enable-background:new 0 0 512.002 512.002;" xml:space="preserve">
<g>
	<g>
		<path d="M509.502,104.908L407.097,2.502c-3.337-3.337-8.73-3.337-12.067,0L2.502,395.03c-3.337,3.337-3.337,8.73,0,12.067
			l102.405,102.405c1.596,1.604,3.772,2.5,6.033,2.5c2.261,0,4.429-0.896,6.033-2.5l392.527-392.527
			c1.604-1.596,2.5-3.772,2.5-6.033C512.002,108.68,511.106,106.512,509.502,104.908z M110.941,491.402l-90.338-90.338
			L401.063,20.603l90.338,90.338L110.941,491.402z" fill="#FFFFFF"/>
	</g>
</g>
<g>
	<g>
		<path d="M409.631,76.797c-14.115,0-25.601,11.486-25.601,25.601c0,14.115,11.486,25.601,25.601,25.601
			c14.115,0,25.601-11.486,25.601-25.601C435.232,88.284,423.746,76.797,409.631,76.797z M409.631,110.932
			c-4.711,0-8.534-3.832-8.534-8.534c0-4.702,3.823-8.534,8.534-8.534s8.534,3.832,8.534,8.534
			C418.165,107.101,414.342,110.932,409.631,110.932z" fill="#FFFFFF"/>
	</g>
</g>
<g>
	<g>
		
			<rect x="328.558" y="80.031" transform="matrix(0.7071 -0.7071 0.7071 0.7071 29.3397 267.1033)" width="17.067" height="36.208" fill="#FFFFFF"/>
	</g>
</g>
<g>
	<g>
		
			<rect x="307.219" y="103.869" transform="matrix(0.7071 -0.7071 0.7071 0.7071 1.9673 260.7621)" width="17.067" height="48.275" fill="#FFFFFF"/>
	</g>
</g>
<g>
	<g>
		
			<rect x="277.356" y="131.227" transform="matrix(0.7071 -0.7071 0.7071 0.7071 -21.8578 245.8932)" width="17.067" height="36.208" fill="#FFFFFF"/>
	</g>
</g>
<g>
	<g>
		
			<rect x="256.016" y="155.056" transform="matrix(0.7071 -0.7071 0.7071 0.7071 -49.2241 239.5496)" width="17.067" height="48.275" fill="#FFFFFF"/>
	</g>
</g>
<g>
	<g>
		
			<rect x="226.153" y="182.423" transform="matrix(0.7071 -0.7071 0.7071 0.7071 -73.0557 224.6825)" width="17.067" height="36.208" fill="#FFFFFF"/>
	</g>
</g>
<g>
	<g>
		
			<rect x="204.814" y="206.252" transform="matrix(0.7071 -0.7071 0.7071 0.7071 -100.4218 218.3388)" width="17.067" height="48.275" fill="#FFFFFF"/>
	</g>
</g>
<g>
	<g>
		<rect x="174.946" y="233.61" transform="matrix(0.707 -0.7072 0.7072 0.707 -124.2531 203.5083)" width="17.067" height="36.2" fill="#FFFFFF"/>
	</g>
</g>
<g>
	<g>
		
			<rect x="153.611" y="257.465" transform="matrix(0.7071 -0.7071 0.7071 0.7071 -151.6316 197.133)" width="17.067" height="48.275" fill="#FFFFFF"/>
	</g>
</g>
<g>
	<g>
		
			<rect x="123.748" y="284.831" transform="matrix(0.7071 -0.7071 0.7071 0.7071 -175.463 182.2643)" width="17.067" height="36.208" fill="#FFFFFF"/>
	</g>
</g>
<g>
	<g>
		
			<rect x="102.409" y="308.669" transform="matrix(0.7071 -0.7071 0.7071 0.7071 -202.835 175.9239)" width="17.067" height="48.275" fill="#FFFFFF"/>
	</g>
</g>
<g>
	<g>
		
			<rect x="72.564" y="336.045" transform="matrix(0.7071 -0.7071 0.7071 0.7071 -226.6681 161.0716)" width="17.067" height="36.208" fill="#FFFFFF"/>
	</g>
</g>
<g>
	<g>
		
			<rect x="51.206" y="359.873" transform="matrix(0.7071 -0.7071 0.7071 0.7071 -254.0397 154.7172)" width="17.067" height="48.275" fill="#FFFFFF"/>
	</g>
</g>
<g>
</g>
<g>
</g>
<g>
</g>
<g>
</g>
<g>
</g>
<g>
</g>
<g>
</g>
<g>
</g>
<g>
</g>
<g>
</g>
<g>
</g>
<g>
</g>
<g>
</g>
<g>
</g>
<g>
</g>
</svg>
