<?xml version="1.0" encoding="utf-8"?>
<!DOCTYPE svg PUBLIC "-//W3C//DTD SVG 1.1//EN" "http://www.w3.org/Graphics/SVG/1.1/DTD/svg11.dtd">
<svg xmlns="http://www.w3.org/2000/svg" xmlns:xlink="http://www.w3.org/1999/xlink" width="512px" version="1.1" height="512px" viewBox="0 0 64 64" enable-background="new 0 0 64 64">
  <g>
    <path fill="#FFFFFF" d="m29.076,61.093c1.121,0 2.03-0.909 2.03-2.03 0-1.12-0.909-2.03-2.03-2.03-13.754,0-24.945-11.191-24.945-24.946 0-13.756 11.191-24.947 24.945-24.947 13.758,0 24.948,11.191 24.95,25.031 0.003,0.056 0.155,4.327-1.101,8.506l-1.873-4.637c-0.42-1.038-1.602-1.537-2.642-1.122-1.04,0.42-1.542,1.603-1.122,2.643l3.643,9.019c0.025,0.062 0.068,0.112 0.097,0.17 0.017,0.029 0.015,0.063 0.032,0.092 0.023,0.04 0.057,0.067 0.081,0.105 0.052,0.075 0.106,0.146 0.166,0.214 0.063,0.07 0.128,0.135 0.199,0.195 0.064,0.055 0.13,0.103 0.2,0.149 0.08,0.053 0.162,0.098 0.25,0.139 0.074,0.035 0.148,0.065 0.227,0.091 0.094,0.032 0.189,0.052 0.287,0.069 0.049,0.009 0.094,0.03 0.144,0.035 0.032,0.003 0.064-0.005 0.097-0.004 0.035,0.002 0.069,0.013 0.105,0.013 0.062,0 0.125-0.018 0.188-0.024 0.08-0.008 0.159-0.014 0.237-0.031 0.098-0.02 0.188-0.055 0.282-0.091 0.077-0.028 0.152-0.055 0.225-0.093 0.029-0.015 0.061-0.02 0.088-0.037l9.158-5.337c0.967-0.564 1.293-1.807 0.73-2.775-0.564-0.968-1.811-1.294-2.777-0.731l-3.906,2.278c1.199-4.53 1.053-8.723 1.043-8.918 0-15.995-13.012-29.007-29.008-29.007-15.992,0-29.005,13.012-29.005,29.007 9.14546e-15,15.993 13.013,29.004 29.005,29.004z"/>
  </g>
</svg>
