<?xml version="1.0" encoding="utf-8"?>
<!DOCTYPE svg PUBLIC "-//W3C//DTD SVG 1.1//EN" "http://www.w3.org/Graphics/SVG/1.1/DTD/svg11.dtd">
<svg xmlns="http://www.w3.org/2000/svg" xmlns:xlink="http://www.w3.org/1999/xlink" width="512px" version="1.1" height="512px" viewBox="0 0 64 64" enable-background="new 0 0 64 64">
  <g>
    <path fill="#FFFFFF" d="m1.253,42.328l9.126,5.32c0.025,0.014 0.051,0.019 0.076,0.032 0.081,0.043 0.165,0.073 0.252,0.105 0.085,0.031 0.168,0.063 0.256,0.082 0.08,0.018 0.162,0.024 0.246,0.032 0.062,0.006 0.125,0.024 0.187,0.024 0.036,0 0.069-0.012 0.104-0.014 0.031-0.001 0.063,0.007 0.096,0.004 0.051-0.005 0.095-0.026 0.144-0.035 0.098-0.017 0.192-0.037 0.286-0.069 0.078-0.025 0.152-0.056 0.227-0.091 0.086-0.04 0.168-0.086 0.248-0.138 0.07-0.046 0.137-0.095 0.2-0.149 0.07-0.06 0.134-0.125 0.198-0.195 0.06-0.068 0.115-0.138 0.166-0.214 0.023-0.037 0.058-0.064 0.08-0.104 0.017-0.028 0.016-0.062 0.031-0.091 0.03-0.058 0.072-0.108 0.098-0.17l3.631-8.989c0.418-1.036-0.082-2.214-1.119-2.633-1.035-0.415-2.214,0.084-2.633,1.118l-1.865,4.615c-1.244-4.161-1.1-8.437-1.097-8.555 0-13.71 11.153-24.864 24.864-24.864 13.709,0 24.863,11.154 24.863,24.864 0,13.709-11.154,24.864-24.863,24.864-1.117,0-2.023,0.906-2.023,2.022 0,1.117 0.906,2.023 2.023,2.023 15.941,0 28.909-12.968 28.909-28.909 0-15.941-12.968-28.91-28.909-28.91s-28.91,12.97-28.909,28.829c-0.01,0.251-0.156,4.451 1.039,8.972l-3.896-2.271c-0.965-0.564-2.204-0.236-2.766,0.729-0.562,0.965-0.236,2.204 0.73,2.766z"/>
  </g>
</svg>
