<?xml version="1.0" encoding="iso-8859-1"?>
<!-- Generator: Adobe Illustrator 19.0.0, SVG Export Plug-In . SVG Version: 6.00 Build 0)  -->
<svg version="1.1" id="Layer_1" xmlns="http://www.w3.org/2000/svg" xmlns:xlink="http://www.w3.org/1999/xlink" x="0px" y="0px"
	 viewBox="0 0 512 512" style="enable-background:new 0 0 512 512;" xml:space="preserve">
<g>
	<g>
		<path d="M423.433,78.453l-39.883,39.883l-21.529-21.529l39.527-39.527c-15.475-13.61-32.468-24.97-50.584-33.913L329.626,75.13
			l-28.149-11.603l21.354-51.802C303.751,5.276,283.764,1.314,263.262,0v55.9h-30.447V0c-20.54,1.317-40.563,5.292-59.673,11.763
			l21.448,51.737l-28.125,11.66l-21.451-51.743c-18.077,8.936-35.036,20.279-50.482,33.864l39.527,39.527l-21.529,21.529
			L73.001,78.809C59.423,94.248,48.083,111.2,39.15,129.267l51.737,21.478l-11.673,28.12l-51.719-21.471
			c-6.476,19.119-10.453,39.151-11.772,59.7h55.9v30.447h-55.9c1.316,20.53,5.289,40.546,11.755,59.65l51.75-21.427l11.648,28.131
			l-51.747,21.426c8.937,18.087,20.285,35.053,33.874,50.506l39.526-39.526l21.529,21.529l-39.883,39.883l51.858,51.859
			l329.258-329.26L423.433,78.453z M146.664,312.163c-39.912-50.599-36.534-124.418,10.134-171.087
			c24.328-24.328,56.731-37.726,91.241-37.726c29.369,0,57.211,9.703,79.851,27.588L146.664,312.163z"/>
	</g>
</g>
<g>
	<g>
		<path d="M173.48,465.487l21.529,21.529L387.026,295c22.585,18.446,49.793,29.716,78.805,32.642V512h30.447V142.687L173.48,465.487
			z M465.831,296.995c-20.881-2.661-40.489-10.783-57.135-23.667l57.135-57.135V296.995z"/>
	</g>
</g>
<g>
</g>
<g>
</g>
<g>
</g>
<g>
</g>
<g>
</g>
<g>
</g>
<g>
</g>
<g>
</g>
<g>
</g>
<g>
</g>
<g>
</g>
<g>
</g>
<g>
</g>
<g>
</g>
<g>
</g>
</svg>
