<?xml version="1.0" encoding="iso-8859-1"?>
<!-- Generator: Adobe Illustrator 17.1.0, SVG Export Plug-In . SVG Version: 6.00 Build 0)  -->
<!DOCTYPE svg PUBLIC "-//W3C//DTD SVG 1.1//EN" "http://www.w3.org/Graphics/SVG/1.1/DTD/svg11.dtd">
<svg version="1.1" id="Capa_1" xmlns="http://www.w3.org/2000/svg" xmlns:xlink="http://www.w3.org/1999/xlink" x="0px" y="0px"
	 viewBox="0 0 442 442" style="enable-background:new 0 0 442 442;" xml:space="preserve">
<g>
	<path d="M427.928,87.025c0-2.652-1.054-5.195-2.929-7.071c-37.562-37.562-85.017-61.625-136.486-69.794
		c-0.277-0.068-0.556-0.132-0.842-0.177c-0.265-0.042-0.527-0.063-0.79-0.084c-12.439-1.89-25.106-2.862-37.923-2.862
		c-12.853,0-25.555,0.979-38.028,2.879c-0.381,0.017-0.765,0.049-1.151,0.11c-0.394,0.063-0.777,0.153-1.152,0.259
		c-25.418,4.117-49.846,12.11-72.578,23.701c-0.112,0.052-0.225,0.094-0.336,0.15c-0.15,0.076-0.288,0.166-0.432,0.248
		c-22.281,11.46-42.916,26.374-61.238,44.471c-0.462,0.326-0.907,0.686-1.321,1.099c-0.42,0.419-0.785,0.872-1.114,1.341
		c-18.083,18.351-32.981,39.013-44.417,61.322c-0.072,0.127-0.15,0.247-0.217,0.378c-0.049,0.096-0.085,0.195-0.13,0.292
		c-11.577,22.757-19.55,47.211-23.641,72.654c-0.105,0.374-0.195,0.755-0.257,1.147c-0.061,0.383-0.093,0.764-0.11,1.142
		C0.963,230.618,0,243.231,0,255.994c0,12.904,0.987,25.656,2.903,38.176c0.021,0.269,0.044,0.538,0.087,0.809
		c0.05,0.313,0.114,0.62,0.191,0.921c8.223,51.333,32.262,98.658,69.738,136.135c1.953,1.952,4.512,2.929,7.071,2.929
		s5.119-0.977,7.071-2.929L425,94.097C426.875,92.221,427.928,89.678,427.928,87.025z M248.959,241.852l-16.953-16.953
		c-3.905-3.904-10.237-3.904-14.142,0c-3.905,3.905-3.905,10.237,0,14.143l16.953,16.952L80.142,410.669
		c-11.937-13.015-22.082-27.093-30.458-41.907l11.97-6.1c4.921-2.508,6.877-8.529,4.37-13.45c-2.508-4.922-8.531-6.876-13.45-4.37
		l-11.967,6.098c-7.215-15.879-12.513-32.42-15.918-49.272l13.135-2.081c5.455-0.864,9.176-5.986,8.313-11.441
		c-0.865-5.454-5.984-9.18-11.441-8.313L21.58,281.91c-1.942-17.19-1.955-34.559-0.02-51.749l13.091,2.073
		c0.53,0.084,1.057,0.124,1.577,0.124c4.833,0,9.084-3.512,9.865-8.437c0.864-5.455-2.858-10.577-8.313-11.441l-13.111-2.077
		c3.397-16.847,8.699-33.381,15.904-49.257l11.876,6.051c1.454,0.741,3.004,1.092,4.532,1.092c3.641,0,7.152-1.995,8.918-5.462
		c2.507-4.921,0.55-10.943-4.371-13.45l-11.905-6.065c8.364-14.808,18.514-28.869,30.435-41.881l9.414,9.413
		c1.953,1.952,4.512,2.929,7.071,2.929s5.119-0.977,7.071-2.929c3.905-3.905,3.905-10.237,0-14.143l-9.422-9.422
		c12.889-11.848,26.906-22.072,41.811-30.552l6.095,11.962c1.767,3.467,5.277,5.462,8.918,5.462c1.527,0,3.078-0.351,4.531-1.092
		c4.921-2.507,6.878-8.529,4.371-13.45l-6.105-11.983c15.711-7.183,32.216-12.561,49.264-16.01l2.098,13.243
		c0.78,4.925,5.031,8.437,9.865,8.437c0.52,0,1.047-0.04,1.577-0.124c5.455-0.864,9.176-5.986,8.313-11.441l-2.093-13.213
		c8.613-0.972,17.33-1.481,26.125-1.481c8.637,0,17.2,0.485,25.661,1.423l-2.095,13.228c-0.864,5.455,2.858,10.577,8.313,11.441
		c0.53,0.084,1.057,0.124,1.577,0.124c4.833,0,9.084-3.512,9.865-8.437l2.104-13.287c17.062,3.417,33.587,8.754,49.316,15.908
		l-6.138,12.046c-2.507,4.921-0.551,10.943,4.371,13.45c1.454,0.741,3.004,1.092,4.531,1.092c3.641,0,7.152-1.995,8.918-5.462
		l6.141-12.054c15.012,8.502,29.139,18.753,42.112,30.665L248.959,241.852z"/>
	<path d="M315.54,87.679c-21.239-8.369-43.641-12.613-66.582-12.613c-48.401,0-93.856,18.8-127.992,52.937
		c-50.983,50.982-66.811,127.357-40.324,194.574c1.236,3.136,3.968,5.438,7.268,6.125c0.677,0.141,1.358,0.209,2.036,0.209
		c2.625,0,5.177-1.034,7.071-2.929l221.927-221.928c2.384-2.384,3.406-5.808,2.72-9.107S318.676,88.914,315.54,87.679z
		 M94.236,300.479c-16.05-55.963-0.781-116.68,40.873-158.334c30.358-30.359,70.791-47.079,113.85-47.079
		c15.171,0,30.075,2.084,44.482,6.209L94.236,300.479z"/>
	<path d="M432,414.964H287.728c-2.11-29.114-13.413-56.403-32.508-78.481l183.851-183.85c3.905-3.905,3.905-10.237,0-14.143
		c-3.905-3.904-10.237-3.904-14.143,0L234.336,329.083c-0.025,0.024-0.052,0.045-0.077,0.069c-0.024,0.024-0.045,0.052-0.069,0.076
		l-88.664,88.664c-2.86,2.86-3.715,7.161-2.167,10.898c1.548,3.736,5.194,6.173,9.239,6.173H432c5.523,0,10-4.478,10-10
		S437.523,414.964,432,414.964z M241.029,350.675c15.375,18.24,24.604,40.52,26.629,64.289H176.74L241.029,350.675z"/>
</g>
<g>
</g>
<g>
</g>
<g>
</g>
<g>
</g>
<g>
</g>
<g>
</g>
<g>
</g>
<g>
</g>
<g>
</g>
<g>
</g>
<g>
</g>
<g>
</g>
<g>
</g>
<g>
</g>
<g>
</g>
</svg>
