<?xml version="1.0" encoding="iso-8859-1"?>
<!-- Generator: Adobe Illustrator 19.0.0, SVG Export Plug-In . SVG Version: 6.00 Build 0)  -->
<svg version="1.1" id="Capa_1" xmlns="http://www.w3.org/2000/svg" xmlns:xlink="http://www.w3.org/1999/xlink" x="0px" y="0px"
	 viewBox="0 0 512 512" style="enable-background:new 0 0 512 512;" xml:space="preserve">
<g>
	<g>
		<path d="M509.799,274.261L237.739,2.201c-2.935-2.935-7.693-2.935-10.627,0L45.738,183.575c-2.935,2.935-2.935,7.693,0,10.627
			l272.06,272.06c2.895,2.895,7.732,2.895,10.627,0l121.02-121.02c2.935-2.935,2.935-7.693,0-10.627
			c-2.935-2.935-7.693-2.935-10.627,0L323.111,450.321l-12.044-12.045l17.358-17.358c2.935-2.935,2.935-7.693,0-10.627
			c-2.935-2.935-7.693-2.935-10.627,0L300.44,427.65l-12.044-12.045l17.358-17.358c2.935-2.935,2.935-7.693,0-10.627
			c-2.935-2.935-7.693-2.935-10.627,0l-17.358,17.358l-12.044-12.045l17.358-17.358c2.935-2.935,2.935-7.693,0-10.627
			c-2.935-2.935-7.693-2.935-10.627,0l-17.358,17.358l-12.044-12.045l40.029-40.03c2.935-2.935,2.935-7.693,0-10.627
			c-2.935-2.935-7.693-2.935-10.627,0l-40.029,40.03l-12.045-12.045l17.358-17.358c2.935-2.935,2.935-7.693,0-10.627
			c-2.935-2.935-7.693-2.935-10.627,0l-17.358,17.358l-12.045-12.045l17.358-17.358c2.935-2.935,2.935-7.693,0-10.627
			c-2.935-2.935-7.693-2.935-10.627,0l-17.358,17.358l-12.044-12.045l17.358-17.358c2.935-2.935,2.935-7.693,0-10.627
			c-2.935-2.935-7.693-2.935-10.627,0l-17.358,17.358l-12.044-12.045l40.03-40.029c2.935-2.935,2.935-7.693,0-10.627
			c-2.934-2.935-7.692-2.935-10.627,0l-40.03,40.029l-12.044-12.044l17.358-17.358c2.935-2.935,2.935-7.693,0-10.627
			c-2.935-2.935-7.693-2.935-10.627,0L119.07,246.28l-12.045-12.044l17.358-17.358c2.935-2.935,2.935-7.693,0-10.627
			c-2.935-2.935-7.693-2.935-10.627,0l-17.358,17.358l-12.044-12.044l17.358-17.358c2.935-2.935,2.935-7.693,0-10.627
			c-2.935-2.935-7.693-2.935-10.627,0l-17.362,17.353l-12.045-12.044L232.425,18.141l34.716,34.716l-40.029,40.03
			c-2.736,2.735-2.918,7.255-0.4,10.196c2.81,3.281,7.97,3.488,11.027,0.431l40.029-40.03L312.484,98.2l-40.03,40.03
			c-2.736,2.735-2.918,7.255-0.4,10.196c2.81,3.281,7.97,3.488,11.027,0.431l40.03-40.03l34.716,34.716l-40.03,40.03
			c-2.736,2.735-2.918,7.255-0.4,10.196c2.81,3.281,7.97,3.488,11.027,0.431l40.03-40.03l34.716,34.716l-40.03,40.03
			c-2.736,2.735-2.918,7.255-0.4,10.196c2.81,3.281,7.97,3.488,11.027,0.431l40.03-40.03l34.716,34.716l-40.03,40.029
			c-2.736,2.735-2.918,7.255-0.4,10.196c2.81,3.281,7.97,3.488,11.027,0.431l40.03-40.029l34.716,34.716l-27.486,27.486
			c-2.935,2.935-2.935,7.693,0,10.627c2.935,2.935,7.693,2.935,10.627,0l32.799-32.799
			C512.734,281.953,512.734,277.195,509.799,274.261z"/>
	</g>
</g>
<g>
	<g>
		<path d="M280.047,464.908c-4.15,0-7.515,3.365-7.515,7.515v13.921L25.656,239.467h13.921c4.15,0,7.515-3.365,7.515-7.515
			c0-4.15-3.365-7.515-7.515-7.515H7.515c-4.087,0-7.516,3.426-7.515,7.518v32.06c0,4.15,3.365,7.515,7.515,7.515
			c4.15,0,7.515-3.365,7.515-7.515v-13.921L261.906,496.97h-13.921c-4.15,0-7.515,3.365-7.515,7.515c0,4.15,3.365,7.515,7.515,7.515
			h32.063c2.483,0,4.871-1.281,6.249-3.343c0.818-1.222,1.266-2.704,1.266-4.175v-32.06
			C287.562,468.272,284.197,464.908,280.047,464.908z"/>
	</g>
</g>
<g>
</g>
<g>
</g>
<g>
</g>
<g>
</g>
<g>
</g>
<g>
</g>
<g>
</g>
<g>
</g>
<g>
</g>
<g>
</g>
<g>
</g>
<g>
</g>
<g>
</g>
<g>
</g>
<g>
</g>
</svg>
