<?xml version="1.0" encoding="iso-8859-1"?>
<!-- Generator: Adobe Illustrator 19.0.0, SVG Export Plug-In . SVG Version: 6.00 Build 0)  -->
<svg version="1.1" id="Capa_1" xmlns="http://www.w3.org/2000/svg" xmlns:xlink="http://www.w3.org/1999/xlink" x="0px" y="0px"
	 viewBox="0 0 488 488" style="enable-background:new 0 0 488 488;" xml:space="preserve">
<g>
	<g>
		<g>
			<path d="M12,96c4.418,0,8-3.582,8-8V16h72c4.418,0,8-3.582,8-8s-3.582-8-8-8H12C7.582,0,4,3.582,4,8v80C4,92.418,7.582,96,12,96z
				"/>
			<path d="M92,472H20v-72c0-4.418-3.582-8-8-8s-8,3.582-8,8v80c0,4.418,3.582,8,8,8h80c4.418,0,8-3.582,8-8S96.418,472,92,472z"/>
			<path d="M476,0h-80c-4.418,0-8,3.582-8,8s3.582,8,8,8h72v72c0,4.418,3.582,8,8,8s8-3.582,8-8V8C484,3.582,480.418,0,476,0z"/>
			<path d="M476,392c-4.418,0-8,3.582-8,8v72h-72c-4.418,0-8,3.582-8,8s3.582,8,8,8h80c4.418,0,8-3.582,8-8v-80
				C484,395.582,480.418,392,476,392z"/>
			<path d="M244,224c-13.255,0-24,10.745-24,24s10.745,24,24,24s24-10.745,24-24S257.255,224,244,224z M244,256
				c-4.418,0-8-3.582-8-8s3.582-8,8-8s8,3.582,8,8S248.418,256,244,256z"/>
			<path d="M132,240H52c-4.418,0-8,3.582-8,8s3.582,8,8,8h80c4.418,0,8-3.582,8-8S136.418,240,132,240z"/>
			<path d="M244,352c-4.418,0-8,3.582-8,8v80c0,4.418,3.582,8,8,8s8-3.582,8-8v-80C252,355.582,248.418,352,244,352z"/>
			<path d="M444,248c0-4.418-3.582-8-8-8h-80c-4.418,0-8,3.582-8,8s3.582,8,8,8h80C440.418,256,444,252.418,444,248z"/>
			<path d="M244,144c4.418,0,8-3.582,8-8V56c0-4.418-3.582-8-8-8s-8,3.582-8,8v80C236,140.418,239.582,144,244,144z"/>
		</g>
	</g>
</g>
<g>
</g>
<g>
</g>
<g>
</g>
<g>
</g>
<g>
</g>
<g>
</g>
<g>
</g>
<g>
</g>
<g>
</g>
<g>
</g>
<g>
</g>
<g>
</g>
<g>
</g>
<g>
</g>
<g>
</g>
</svg>
