<?xml version="1.0" encoding="iso-8859-1"?>
<!-- Generator: Adobe Illustrator 19.0.0, SVG Export Plug-In . SVG Version: 6.00 Build 0)  -->
<svg version="1.1" id="Layer_1" xmlns="http://www.w3.org/2000/svg" xmlns:xlink="http://www.w3.org/1999/xlink" x="0px" y="0px"
	 viewBox="0 0 512 512" style="enable-background:new 0 0 512 512;" xml:space="preserve">
<g>
	<g>
		<path d="M310.899,83.668V60.68h-47.02v22.988h-15.673V60.68h-47.02v22.988h-26.122v-7.314h7.837V60.68h-31.347v15.673h7.837v7.314
			H23.552v47.02h177.633v64.784h33.217l13.803-23.466v-41.317h15.673v41.317l13.803,23.466h33.217v-64.784h31.347v-47.02H310.899z
			 M201.185,115.015H39.225V99.342h15.673v7.837h15.674v-7.837h7.314v7.837H93.56v-7.837h7.314v7.837h15.673v-7.837h7.314v7.837
			h15.673v-7.837h7.314v7.837h15.673v-7.837h7.314v7.837h15.673v-7.837h15.674V115.015z M232.532,167.739l-7.094,12.06h-8.58V76.354
			h15.674V167.739z M263.879,115.015h-15.673V99.342h15.673V115.015z M295.225,179.799h-8.579l-7.095-12.06V76.354h15.673V179.799z
			 M326.572,115.015h-15.673V99.342h15.673V115.015z"/>
	</g>
</g>
<g>
	<g>
		<path d="M0,352.054v99.265h512v-99.265H0z M496.327,435.646H15.673v-15.673h480.653V435.646z M496.327,404.299H15.673v-36.571
			h15.673v23.51H47.02v-23.51h27.69v13.061h15.673v-13.061h27.69v23.51h15.673v-23.51h27.69v13.061h15.673v-13.061h27.69v23.51
			h15.673v-23.51h27.69v13.061h15.673v-13.061h27.69v23.51H307.2v-23.51h27.69v13.061h15.674v-13.061h27.69v23.51h15.673v-23.51
			h27.69v13.061h15.673v-13.061h27.69v23.51h15.673v-23.51h15.673V404.299z"/>
	</g>
</g>
<g>
	<g>
		<path d="M256,250.253c-12.964,0-23.51,10.547-23.51,23.51s10.546,23.51,23.51,23.51c12.964,0,23.51-10.547,23.51-23.51
			S268.964,250.253,256,250.253z M256,281.6c-4.322,0-7.837-3.515-7.837-7.837c0-4.322,3.515-7.837,7.837-7.837
			c4.322,0,7.837,3.515,7.837,7.837C263.837,278.085,260.322,281.6,256,281.6z"/>
	</g>
</g>
<g>
	<g>
		
			<rect x="209.369" y="227.155" transform="matrix(0.7072 -0.707 0.707 0.7072 -102.544 222.3702)" width="15.673" height="15.673"/>
	</g>
</g>
<g>
	<g>
		
			<rect x="286.957" y="304.694" transform="matrix(0.7072 -0.707 0.707 0.7072 -134.6473 299.9272)" width="15.673" height="15.673"/>
	</g>
</g>
<g>
	<g>
		
			<rect x="286.966" y="227.134" transform="matrix(0.707 -0.7072 0.7072 0.707 -79.7976 277.3306)" width="15.673" height="15.673"/>
	</g>
</g>
<g>
	<g>
		
			<rect x="209.403" y="304.712" transform="matrix(0.707 -0.7072 0.7072 0.707 -157.3868 245.2074)" width="15.673" height="15.673"/>
	</g>
</g>
<g>
	<g>
		<polygon points="201.143,258.09 201.143,265.927 49.633,265.927 49.633,258.09 33.959,258.09 33.959,289.437 49.633,289.437 
			49.633,281.6 201.143,281.6 201.143,289.437 216.816,289.437 216.816,258.09 		"/>
	</g>
</g>
<g>
	<g>
		<polygon points="462.367,258.09 462.367,265.927 310.857,265.927 310.857,258.09 295.184,258.09 295.184,289.437 310.857,289.437 
			310.857,281.6 462.367,281.6 462.367,289.437 478.041,289.437 478.041,258.09 		"/>
	</g>
</g>
<g>
</g>
<g>
</g>
<g>
</g>
<g>
</g>
<g>
</g>
<g>
</g>
<g>
</g>
<g>
</g>
<g>
</g>
<g>
</g>
<g>
</g>
<g>
</g>
<g>
</g>
<g>
</g>
<g>
</g>
</svg>
