<?xml version="1.0" encoding="iso-8859-1"?>
<!-- Generator: Adobe Illustrator 19.0.0, SVG Export Plug-In . SVG Version: 6.00 Build 0)  -->
<svg version="1.1" id="Capa_1" xmlns="http://www.w3.org/2000/svg" xmlns:xlink="http://www.w3.org/1999/xlink" x="0px" y="0px"
	 viewBox="0 0 512 512" style="enable-background:new 0 0 512 512;" xml:space="preserve">
<g>
	<g>
		<path d="M53.333,448H10.667C4.779,448,0,452.779,0,458.667v42.667C0,507.221,4.779,512,10.667,512h42.667
			C59.221,512,64,507.221,64,501.333v-42.667C64,452.779,59.221,448,53.333,448z M42.667,490.667H21.333v-21.333h21.333V490.667z"/>
	</g>
</g>
<g>
	<g>
		<path d="M501.333,0h-42.667C452.779,0,448,4.779,448,10.667v42.667C448,59.221,452.779,64,458.667,64h42.667
			C507.221,64,512,59.221,512,53.333V10.667C512,4.779,507.221,0,501.333,0z M490.667,42.667h-21.333V21.333h21.333V42.667z"/>
	</g>
</g>
<g>
	<g>
		<path d="M466.197,45.803c-4.16-4.16-10.923-4.16-15.083,0L45.781,451.136c-4.16,4.16-4.16,10.923,0,15.083
			c2.091,2.069,4.821,3.115,7.552,3.115c2.731,0,5.461-1.045,7.531-3.115L466.197,60.885
			C470.357,56.725,470.357,49.963,466.197,45.803z"/>
	</g>
</g>
<g>
</g>
<g>
</g>
<g>
</g>
<g>
</g>
<g>
</g>
<g>
</g>
<g>
</g>
<g>
</g>
<g>
</g>
<g>
</g>
<g>
</g>
<g>
</g>
<g>
</g>
<g>
</g>
<g>
</g>
</svg>
