<?xml version="1.0" encoding="UTF-8" standalone="no"?>
<!-- Generator: Adobe Illustrator 19.1.0, SVG Export Plug-In . SVG Version: 6.00 Build 0)  -->

<svg
   xmlns:dc="http://purl.org/dc/elements/1.1/"
   xmlns:cc="http://creativecommons.org/ns#"
   xmlns:rdf="http://www.w3.org/1999/02/22-rdf-syntax-ns#"
   xmlns:svg="http://www.w3.org/2000/svg"
   xmlns="http://www.w3.org/2000/svg"
   xmlns:sodipodi="http://sodipodi.sourceforge.net/DTD/sodipodi-0.dtd"
   xmlns:inkscape="http://www.inkscape.org/namespaces/inkscape"
   version="1.1"
   id="Capa_1"
   x="0px"
   y="0px"
   viewBox="0 0 484.054 484.054"
   style="enable-background:new 0 0 484.054 484.054;"
   xml:space="preserve"
   sodipodi:docname="perpendicular.svg"
   inkscape:version="0.92.3 (d244b95, 2018-08-02)"><metadata
   id="metadata3831"><rdf:RDF><cc:Work
       rdf:about=""><dc:format>image/svg+xml</dc:format><dc:type
         rdf:resource="http://purl.org/dc/dcmitype/StillImage" /><dc:title></dc:title></cc:Work></rdf:RDF></metadata><defs
   id="defs3829" /><sodipodi:namedview
   pagecolor="#ffffff"
   bordercolor="#666666"
   borderopacity="1"
   objecttolerance="10"
   gridtolerance="10"
   guidetolerance="10"
   inkscape:pageopacity="0"
   inkscape:pageshadow="2"
   inkscape:window-width="1871"
   inkscape:window-height="1025"
   id="namedview3827"
   showgrid="false"
   inkscape:zoom="1.2256124"
   inkscape:cx="457.63945"
   inkscape:cy="265.19349"
   inkscape:window-x="49"
   inkscape:window-y="27"
   inkscape:window-maximized="1"
   inkscape:current-layer="Capa_1" />
<g
   id="g3794">
	<path
   d="m 268.031,449.497 c -1.224,-4.77 -3.706,-9.133 -7.288,-12.701 -3.346,-3.324 -7.389,-5.688 -11.795,-6.962 L 247.80012,73.866825 236.96106,73.849607 235.12,429.423 c -5.073,1.14 -9.73,3.69 -13.483,7.463 -3.533,3.54 -5.981,7.869 -7.198,12.598 H 13.86 v 13.828 h 200.579 c 1.224,4.763 3.706,9.126 7.281,12.687 5.227,5.193 12.148,8.055 19.512,8.055 h 0.062 c 7.384,-0.014 14.326,-2.911 19.539,-8.152 3.526,-3.533 5.974,-7.862 7.184,-12.577 h 202.176 v -13.828 z m -12.971,6.956 c -0.014,3.658 -1.438,7.094 -4.031,9.701 -2.607,2.62 -6.071,4.065 -9.763,4.072 h -0.035 c -3.678,0 -7.142,-1.431 -9.756,-4.031 -2.627,-2.613 -4.072,-6.091 -4.072,-9.797 0,-3.685 1.432,-7.149 4.031,-9.756 2.607,-2.62 6.071,-4.065 9.763,-4.072 h 0.035 c 3.678,0 7.142,1.431 9.756,4.031 2.634,2.613 4.079,6.098 4.072,9.804 z"
   id="path3792"
   inkscape:connector-curvature="0"
   sodipodi:nodetypes="ccccccccccccscccccccccscsccsccc" />
</g>
<g
   id="g3796">
</g>
<g
   id="g3798">
</g>
<g
   id="g3800">
</g>
<g
   id="g3802">
</g>
<g
   id="g3804">
</g>
<g
   id="g3806">
</g>
<g
   id="g3808">
</g>
<g
   id="g3810">
</g>
<g
   id="g3812">
</g>
<g
   id="g3814">
</g>
<g
   id="g3816">
</g>
<g
   id="g3818">
</g>
<g
   id="g3820">
</g>
<g
   id="g3822">
</g>
<g
   id="g3824">
</g>
</svg>