<?xml version="1.0" encoding="iso-8859-1"?>
<!-- Generator: Adobe Illustrator 19.0.0, SVG Export Plug-In . SVG Version: 6.00 Build 0)  -->
<svg version="1.1" id="Layer_1" xmlns="http://www.w3.org/2000/svg" xmlns:xlink="http://www.w3.org/1999/xlink" x="0px" y="0px"
	 viewBox="0 0 206.517 206.517" style="enable-background:new 0 0 206.517 206.517;" xml:space="preserve">
<g>
	<g>
		<path d="M202.621,130.535h-7.991c-1.985-39.856-33.979-71.852-73.837-73.837v-7.991c0-2.152-1.743-3.897-3.897-3.897H93.517
			c-2.154,0-3.897,1.745-3.897,3.897v7.794H30.619c-1.743-6.703-7.79-11.69-15.033-11.69C6.99,44.811,0,51.803,0,60.397
			c0,8.595,6.99,15.586,15.586,15.586c7.243,0,13.29-4.987,15.033-11.69h29.154c-24.985,12.072-42.534,37.039-43.989,66.241H7.793
			c-2.154,0-3.897,1.745-3.897,3.897v23.379c0,2.152,1.743,3.897,3.897,3.897h23.379c2.154,0,3.897-1.745,3.897-3.897v-23.379
			c0-2.152-1.743-3.897-3.897-3.897h-7.596C25.544,94.973,54.06,66.459,89.62,64.49v7.596c0,2.152,1.743,3.897,3.897,3.897h23.379
			c2.154,0,3.897-1.745,3.897-3.897V64.49c35.56,1.968,64.076,30.483,66.044,66.044h-7.596c-2.154,0-3.897,1.745-3.897,3.897v23.379
			c0,2.152,1.743,3.897,3.897,3.897h23.379c2.154,0,3.897-1.745,3.897-3.897v-23.379
			C206.517,132.279,204.774,130.535,202.621,130.535z M15.586,68.191c-4.296,0-7.793-3.495-7.793-7.793
			c0-4.298,3.497-7.793,7.793-7.793s7.793,3.495,7.793,7.793C23.379,64.696,19.882,68.191,15.586,68.191z M27.276,138.329v15.586
			H11.69v-15.586H27.276z M113,68.191H97.414v-3.897v-7.793v-3.897H113V68.191z M198.724,153.915h-15.586v-15.586h15.586V153.915z"
			/>
	</g>
</g>
<g>
</g>
<g>
</g>
<g>
</g>
<g>
</g>
<g>
</g>
<g>
</g>
<g>
</g>
<g>
</g>
<g>
</g>
<g>
</g>
<g>
</g>
<g>
</g>
<g>
</g>
<g>
</g>
<g>
</g>
</svg>
