<?xml version="1.0" encoding="iso-8859-1"?>
<!-- Generator: Adobe Illustrator 16.0.0, SVG Export Plug-In . SVG Version: 6.00 Build 0)  -->
<!DOCTYPE svg PUBLIC "-//W3C//DTD SVG 1.1//EN" "http://www.w3.org/Graphics/SVG/1.1/DTD/svg11.dtd">
<svg xmlns="http://www.w3.org/2000/svg" xmlns:xlink="http://www.w3.org/1999/xlink" version="1.1" id="Capa_1" x="0px" y="0px" width="512px" height="512px" viewBox="0 0 612 612" style="enable-background:new 0 0 612 612;" xml:space="preserve">
<g>
	<g id="_x36_">
		<g>
			<path d="M248.542,343.929H78.879c-10.452,0-18.917,8.428-18.917,18.842c0,10.395,8.465,18.84,18.917,18.84h125.351L0,584.979     l26.751,26.639l204.019-203.18l-0.592,123.822c0,10.395,8.465,18.84,18.917,18.84c10.452,0,18.917-8.426,18.917-18.84v-169.51     c0-5.58-2.312-10.09-5.981-13.186C258.573,346.126,253.815,343.929,248.542,343.929z M533.141,230.388H407.79L612,27.019     L585.248,0.382l-204,203.178l0.593-123.822c0-10.395-8.465-18.841-18.917-18.841s-18.917,8.427-18.917,18.841v169.51     c0,5.58,2.312,10.089,5.961,13.166c3.439,3.478,8.179,5.675,13.472,5.675h169.662c10.452,0,18.918-8.427,18.918-18.841     C552.038,238.834,543.573,230.388,533.141,230.388z" fill="#51a7f9"/>
		</g>
	</g>
</g>
</svg>
