<?xml version="1.0" encoding="iso-8859-1"?>
<!-- Generator: Adobe Illustrator 16.0.0, SVG Export Plug-In . SVG Version: 6.00 Build 0)  -->
<!DOCTYPE svg PUBLIC "-//W3C//DTD SVG 1.1//EN" "http://www.w3.org/Graphics/SVG/1.1/DTD/svg11.dtd">
<svg version="1.1" id="Capa_1" xmlns="http://www.w3.org/2000/svg" xmlns:xlink="http://www.w3.org/1999/xlink" x="0px" y="0px"
	 width="392.666px" height="392.666px" viewBox="0 0 392.666 392.666" style="enable-background:new 0 0 392.666 392.666;"
	 xml:space="preserve">
<g>
	<g>
		<path d="M275.753,263.198l116.912-111.075l-72.924-76.757L275.753,263.198z M366.226,151.444l-57.993,55.088l21.817-93.161
			L366.226,151.444z"/>
		<path d="M308.135,67.505l-0.414-0.101L204.118,43.142l-0.381,1.617l63.389,197.864L308.135,67.505z M231.035,68.659l54.62,12.788
			l-21.337,91.103L231.035,68.659z"/>
		<path d="M87.325,74.468l3.729,11.643l164.764,164.763l0.104-0.316L189.065,41.869L87.325,74.468z M116.245,84.844l60.712-19.446
			l37.783,117.953L116.245,84.844z"/>
		<path d="M263.831,275.827l0.561-0.572l-0.292-0.292L75.539,86.402l-0.18,0.183L0,161.944l188.852,188.853L263.831,275.827z
			 M75.539,112.854L237.94,275.255l-49.088,49.091L26.448,161.944L75.539,112.854z"/>
		<path d="M189.44,260.057c9.039,0,16.367,7.331,16.367,16.367s-7.328,16.367-16.367,16.367c-9.04,0-16.368-7.331-16.368-16.367
			S180.4,260.057,189.44,260.057z"/>
	</g>
</g>
<g>
</g>
<g>
</g>
<g>
</g>
<g>
</g>
<g>
</g>
<g>
</g>
<g>
</g>
<g>
</g>
<g>
</g>
<g>
</g>
<g>
</g>
<g>
</g>
<g>
</g>
<g>
</g>
<g>
</g>
</svg>
