<?xml version="1.0" encoding="iso-8859-1"?>
<!-- Generator: Adobe Illustrator 19.0.0, SVG Export Plug-In . SVG Version: 6.00 Build 0)  -->
<svg version="1.1" id="Capa_1" xmlns="http://www.w3.org/2000/svg" xmlns:xlink="http://www.w3.org/1999/xlink" x="0px" y="0px"
	 viewBox="0 0 284.301 284.301" style="enable-background:new 0 0 284.301 284.301;" xml:space="preserve">
<g>
	<path d="M282.543,137.908L146.393,1.758c-2.342-2.344-6.143-2.344-8.484,0L1.758,137.908c-2.344,2.343-2.344,6.142,0,8.484
		l136.15,136.15c1.171,1.172,2.707,1.758,4.242,1.758s3.071-0.586,4.242-1.758l98.15-98.15c2.344-2.343,2.344-6.142,0-8.484
		c-2.342-2.344-6.143-2.344-8.484,0l-93.908,93.907L14.485,142.15L142.15,14.485l131.908,131.907c2.342,2.344,6.143,2.344,8.484,0
		C284.887,144.05,284.887,140.251,282.543,137.908z"/>
	<path d="M166.62,143.662c1.171,1.172,2.707,1.758,4.242,1.758s3.071-0.586,4.242-1.758l18.385-18.385
		c2.344-2.343,2.344-6.142,0-8.484l-18.385-18.385c-2.342-2.344-6.143-2.344-8.484,0c-2.344,2.343-2.344,6.142,0,8.484l8.142,8.143
		h-68.708c-3.313,0-6,2.687-6,6v79c0,3.313,2.687,6,6,6s6-2.687,6-6v-73h62.708l-8.142,8.143
		C164.276,137.521,164.276,141.319,166.62,143.662z"/>
</g>
<g>
</g>
<g>
</g>
<g>
</g>
<g>
</g>
<g>
</g>
<g>
</g>
<g>
</g>
<g>
</g>
<g>
</g>
<g>
</g>
<g>
</g>
<g>
</g>
<g>
</g>
<g>
</g>
<g>
</g>
</svg>
