<?xml version="1.0" encoding="iso-8859-1"?>
<!-- Generator: Adobe Illustrator 16.0.0, SVG Export Plug-In . SVG Version: 6.00 Build 0)  -->
<!DOCTYPE svg PUBLIC "-//W3C//DTD SVG 1.1//EN" "http://www.w3.org/Graphics/SVG/1.1/DTD/svg11.dtd">
<svg height='200' width='200'  fill="#000000" xmlns="http://www.w3.org/2000/svg" xmlns:xlink="http://www.w3.org/1999/xlink" version="1.1" x="0px" y="0px" viewBox="0 0 100 100" enable-background="new 0 0 100 100" xml:space="preserve"><g display="none"><path d="M73.83,10H26.571L2.941,51l23.629,41H73.83l23.631-41L73.83,10z M70.602,86H29.8L9.399,50.5L29.8,15h40.802l20.402,35.5   L70.602,86z"></path></g><g display="none"><g><g display="inline"><polygon points="23,35.347 23,43.328 29.913,31.355    "></polygon><polygon points="43.101,24 57.811,24 50.454,19.754    "></polygon><polygon points="23,58.67 23,66.525 29.806,70.454    "></polygon><polygon points="69.679,70.877 76.639,66.794 77,65.966 77,57.807    "></polygon><polygon points="77,44.197 77,35.34 69.326,30.911    "></polygon><polygon points="43.324,78 50.253,82 50.642,82 57.57,78    "></polygon><polygon points="41.761,19 32.141,19 27.381,27.303    "></polygon><polygon points="65.904,77.807 65.793,78 65.57,78 58.643,82 68.261,82 73.021,73.698    "></polygon><polygon points="35.156,78 34.608,78 34.332,77.521 27.193,73.37 32.141,82 42.036,82    "></polygon><polygon points="73.209,27.63 68.261,19 58.364,19    "></polygon><polygon points="18.841,42.198 14.081,50.5 18.891,58.89    "></polygon><polygon points="81.512,42.111 81.562,58.803 86.321,50.5    "></polygon></g><polygon opacity="0.6" fill="#000000" points="50.229,86.908 18.92,68.801 18.893,32.633 50.173,14.573 81.482,32.681     81.509,68.849   "></polygon></g><g display="inline"><g display="none"><polygon display="inline" points="32.141,82.076 14.081,50.741 32.141,19.405 68.261,19.405 86.321,50.741 68.261,82.076    "></polygon></g><g display="none"><polygon display="inline" fill="#000000" points="34.608,77.795 19.017,50.741 34.608,23.686 65.793,23.686 81.387,50.741      65.793,77.795    "></polygon></g><g><polygon points="34.332,77.521 27.193,73.37 32.141,82 42.036,82 35.156,78 42.515,78 30.729,71.197 34.657,78 34.608,78    "></polygon><polygon points="57.995,78 65.57,78 58.643,82 68.261,82 73.021,73.698 66.441,77.496 70.333,70.814    "></polygon><polygon points="77,65.966 77,57.807 69.679,70.877 76.639,66.794    "></polygon><path d="M91.13,27.111L70.805,15.356l9.134,16.015l-6.731-3.744l0.002,0.003l-0.077-0.045l-0.01-0.005l8.39,14.431l-0.023-7.78     l9.516,16.51l-9.506,16.493l-0.191-8.053L77,66.297v0.223l0.035,0.111l-3.887,6.929l7.026-4.099L70.602,86H51.475l7.405-4.207     l-7.957,0.045L57.57,78H43.324l6.643,3.801l-8.256-0.06L49.155,86H29.8l-9.753-16.854l7.234,4.275l-3.872-6.659l6.396,3.692     L23,58.67v7.388l-4.108-7.069l0.025,8.262L9.399,50.73l9.418-16.353l0.022,7.4l8.302-14.423l-6.465,3.647l8.973-15.738     L9.237,27.049l0.037,47.322l40.963,23.691l40.927-23.63L91.13,27.111z M50.448,82.112L50.253,82h0.388L50.448,82.112z"></path><polygon points="77,35.34 70.066,31.339 65.83,24 57.811,24 50.454,19.754 43.101,24 56.97,24 69.518,31.242 77,44.197    "></polygon><polygon points="68.261,19 58.364,19 52.073,15 70.188,15 50.165,3.419 30.106,15 48.095,15 41.761,19 32.141,19 27.381,27.303      41.521,19.139 58.691,19.19 73.132,27.585 73.207,27.627    "></polygon><polygon points="81.512,42.111 81.562,58.803 86.321,50.5    "></polygon><polygon points="18.891,58.89 18.841,42.198 14.081,50.5    "></polygon><polygon points="30.802,31.101 43.541,23.746 35.047,23.747    "></polygon><polygon points="81.143,50.495 77.063,43.428 77.258,58.408 81.244,51.393    "></polygon><polygon points="23,44.064 19.009,50.978 23,57.89    "></polygon><polygon points="29.913,31.355 23,35.347 23,43.328    "></polygon></g></g></g><g display="none"><rect x="56" y="38" transform="matrix(0.5085 0.861 -0.861 0.5085 69.5206 -40.7992)" display="inline" opacity="0.7" fill="#000000" width="28.999" height="5"></rect></g><g display="none"><rect x="24" y="79" display="inline" fill="#000000" width="52" height="4"></rect><rect x="-0.187" y="31.063" transform="matrix(0.5 -0.866 0.866 0.5 -15.7266 38.8854)" display="inline" fill="#000000" width="52" height="4"></rect><rect x="49.625" y="32.749" transform="matrix(-0.5 -0.866 0.866 -0.5 83.343 117.6178)" display="inline" fill="#000000" width="52" height="4.001"></rect></g><g display="none"><rect x="-10.57" y="37.566" transform="matrix(0.5 -0.866 0.866 0.5 -15.7797 61.8012)" display="inline" opacity="0.6" fill="#000000" width="112.403" height="14"></rect><rect x="-0.99" y="38.317" transform="matrix(-0.5 -0.866 0.866 -0.5 43.5727 115.7899)" display="inline" opacity="0.6" fill="#000000" width="112.404" height="13.999"></rect><rect x="-4.864" y="50.442" display="inline" opacity="0.6" fill="#000000" width="112.403" height="14"></rect></g><g display="none"><path display="inline" d="M73.83,10H26.571L2.941,51l23.629,41H73.83l23.631-41L73.83,10z M70.602,86H29.8L9.399,50.5L29.8,15   h40.802l20.402,35.5L70.602,86z"></path><polygon display="inline" points="65.661,79 34.924,79 32.042,83 68.542,83  "></polygon><polygon display="inline" points="18.371,50 34.241,22.828 31.894,19 31.764,19 13.62,50  "></polygon><polygon display="inline" points="68.481,19 66.146,22.841 81.99,50 86.739,50 68.637,19  "></polygon></g><g display="none"><path display="inline" d="M73.83,10H26.571L2.941,51l23.629,41H73.83l23.631-41L73.83,10z M70.602,86H29.8L9.399,50.5L29.8,15   h40.802l20.402,35.5L70.602,86z"></path><polygon display="inline" points="66.773,79 33.608,79 31.307,83 69.068,83  "></polygon><polygon display="inline" points="66.296,22.593 82.12,50 86.739,50 68.609,18.598  "></polygon><polygon display="inline" points="18.343,50 34.129,22.658 31.813,18.67 13.724,50  "></polygon></g><g><g><path d="M50.165,3.679L9.237,27.308L9.273,74.63l40.964,23.692l40.927-23.63L91.13,27.37L50.165,3.679z M85.368,71.11    L50.033,91.512L14.616,70.968l-0.083-40.944L49.869,9.623l35.418,20.542L85.368,71.11z"></path><polygon points="49.831,83.545 49.838,88.16 82.541,69.279 78.554,66.963   "></polygon><polygon points="49.942,13.735 49.936,18.351 77.344,34.174 81.344,31.865   "></polygon><polygon points="18,32.196 18,68.372 22,66.063 22,34.491   "></polygon></g></g></svg>