<?xml version="1.0" encoding="iso-8859-1"?>
<!-- Generator: Adobe Illustrator 18.0.0, SVG Export Plug-In . SVG Version: 6.00 Build 0)  -->
<!DOCTYPE svg PUBLIC "-//W3C//DTD SVG 1.1//EN" "http://www.w3.org/Graphics/SVG/1.1/DTD/svg11.dtd">
<svg version="1.1" id="Capa_1" xmlns="http://www.w3.org/2000/svg" xmlns:xlink="http://www.w3.org/1999/xlink" x="0px" y="0px"
	 viewBox="0 0 60 60" style="enable-background:new 0 0 60 60;" xml:space="preserve">
<g>
	<path d="M60,8V0h-8v3H8V0H0v8h3v44H0v8h8v-3h44v3h8v-8h-3V8H60z M54,2h4v4h-1h-3V3V2z M2,6V2h4v1v3H3H2z M6,58H2v-4h1h3v3V58z
		 M58,54v4h-4v-1v-3h3H58z M55,52h-3v3H8v-3H5V8h3V5h44v3h3V52z"/>
	<path d="M36,13H12v24h11v11h24V24H36V13z M18,35h-4v-4v-6v-6v-4h4h6h6h4v4v5v1v6v4h-4h-6h-1H18z M45,26v20H25v-9h11V26H45z"/>
</g>
<g>
</g>
<g>
</g>
<g>
</g>
<g>
</g>
<g>
</g>
<g>
</g>
<g>
</g>
<g>
</g>
<g>
</g>
<g>
</g>
<g>
</g>
<g>
</g>
<g>
</g>
<g>
</g>
<g>
</g>
</svg>
