<?xml version="1.0" encoding="iso-8859-1"?>
<!-- Generator: Adobe Illustrator 16.0.0, SVG Export Plug-In . SVG Version: 6.00 Build 0)  -->
<!DOCTYPE svg PUBLIC "-//W3C//DTD SVG 1.1//EN" "http://www.w3.org/Graphics/SVG/1.1/DTD/svg11.dtd">
<svg xmlns="http://www.w3.org/2000/svg" xmlns:xlink="http://www.w3.org/1999/xlink" version="1.1" id="Capa_1" x="0px" y="0px" width="512px" height="512px" viewBox="0 0 612 612" style="enable-background:new 0 0 612 612;" xml:space="preserve">
<g>
	<g id="_x35_">
		<g>
			<path d="M243.958,340.177L37.657,546.497L38.25,420.75c0-10.557-8.568-19.125-19.125-19.125S0,410.193,0,420.75v172.125     c0,5.661,2.333,10.232,6.043,13.368C9.505,609.781,14.325,612,19.68,612h171.57c10.557,0,19.125-8.567,19.125-19.125     c0-10.557-8.568-19.125-19.125-19.125H64.47l206.531-206.512L243.958,340.177z M605.956,5.757C602.495,2.219,597.676,0,592.34,0     H420.75c-10.557,0-19.125,8.568-19.125,19.125c0,10.557,8.568,19.125,19.125,19.125h126.761L340.999,244.781l27.042,27.042     l206.321-206.32L573.75,191.25c0,10.557,8.568,19.125,19.125,19.125S612,201.807,612,191.25V19.125     C612,13.464,609.667,8.894,605.956,5.757z" fill="#51a7f9"/>
		</g>
	</g>
</g>
</svg>
