<?xml version="1.0" encoding="UTF-8" standalone="no"?>
<svg
   xmlns:dc="http://purl.org/dc/elements/1.1/"
   xmlns:cc="http://creativecommons.org/ns#"
   xmlns:rdf="http://www.w3.org/1999/02/22-rdf-syntax-ns#"
   xmlns:svg="http://www.w3.org/2000/svg"
   xmlns="http://www.w3.org/2000/svg"
   version="1.1"
   width="200"
   height="200"
   viewBox="0 0 200 200"
   >
  <g
     transform="translate(30.780767,-571.7718)">
    <path
       style="fill:#2296e5;stroke-width:0.39979377"
       d="m -26.567854,771.17982 c -1.489333,-0.66529 -3.209515,-2.47098 -3.771141,-3.95859 -0.589029,-1.5602 -0.589029,-49.78116 0,-51.34137 0.961728,-2.5474 3.815855,-4.52546 6.529765,-4.52546 2.839782,0 5.010124,1.45197 6.277187,4.19947 0.676297,1.46646 0.738513,2.88303 0.746559,16.99656 l 0.0088,15.39679 23.6785907,-23.67739 C 20.030515,711.14187 31.081709,700.40608 31.705483,700.17416 c 5.562706,-2.06823 11.120561,3.49543 9.045036,9.05448 -0.231853,0.62098 -11.027856,11.75296 -24.073672,24.82286 l -23.6533095,23.69698 15.3815368,0.009 c 14.0993717,0.008 15.5147857,0.0704 16.9800837,0.74713 2.745363,1.26806 4.196206,3.44009 4.196206,6.28208 0,2.716 -1.976527,5.57235 -4.521948,6.53482 -1.80681,0.68319 -50.077283,0.55092 -51.627277,-0.14148 z m 139.473884,0 c -2.46022,-1.09899 -4.19621,-3.76003 -4.19621,-6.43223 0,-2.80214 1.46489,-4.98163 4.19621,-6.24319 1.4653,-0.6768 2.8807,-0.73909 16.98008,-0.74713 l 15.38154,-0.009 -23.65331,-23.69698 c -13.04583,-13.0699 -23.841826,-24.20189 -24.073682,-24.82287 -2.081763,-5.57574 3.465612,-11.1289 9.045042,-9.05446 0.62378,0.23192 11.67497,10.96769 24.80361,24.09567 l 23.67859,23.67737 0.009,-15.39677 c 0.008,-14.11354 0.0702,-15.53012 0.74656,-16.99658 1.26707,-2.74749 4.11252,-4.19946 6.95231,-4.19946 2.7139,0 5.23046,1.97807 6.1922,4.52547 0.50855,1.20138 0.0875,9.3125 0.0875,25.70956 0,19.985 -0.10293,24.82442 -0.55025,25.87066 -0.66541,1.55639 -2.44073,3.28232 -3.9717,3.86121 -1.80681,0.6832 -50.07729,0.55091 -51.62728,-0.14147 z M 30.601866,641.9839 c -1.22039,-0.44906 -6.757563,-5.76417 -24.4778691,-23.49623 l -22.9007039,-22.91589 -0.0088,15.39673 c -0.008,14.11349 -0.07024,15.53007 -0.74656,16.99653 -2.099448,4.55242 -7.380094,5.64586 -10.983311,2.27426 -2.299319,-2.15151 -2.248703,-1.51517 -2.248703,-28.27093 0,-20.01803 0.102895,-24.86324 0.550241,-25.90955 0.665421,-1.5564 2.440734,-3.28233 3.971707,-3.86122 0.750379,-0.28372 9.30528,-0.42539 25.68961927,-0.42539 26.69273373,0 26.06051873,-0.0505 28.21015373,2.25045 3.368983,3.60601 2.276389,8.89076 -2.272495,10.99184 -1.465302,0.67681 -2.880705,0.73909 -16.9799723,0.74714 l -15.3814145,0.009 23.0441108,23.09705 c 20.645045,20.69248 23.091416,23.27749 23.498503,24.8303 1.415304,5.39856 -3.774703,10.1958 -8.964527,8.28612 z m 72.878114,0.19704 c -3.660717,-1.11024 -5.723399,-4.79003 -4.755189,-8.48316 0.407088,-1.5528 2.853459,-4.13783 23.498509,-24.8303 l 23.0441,-23.09706 -15.38141,-0.009 c -14.09927,-0.008 -15.51466,-0.0704 -16.97996,-0.74714 -4.54889,-2.10108 -5.64149,-7.38582 -2.2725,-10.99184 2.14984,-2.3011 1.51399,-2.25045 28.249,-2.25045 20.00248,0 24.84394,0.10297 25.88944,0.55067 1.55519,0.66593 3.27977,2.44263 3.85822,3.97479 0.2835,0.75096 0.42505,9.3125 0.42505,25.70957 0,26.71347 0.0504,26.08076 -2.2487,28.23207 -3.60321,3.3716 -8.88386,2.27815 -10.98331,-2.27426 -0.67628,-1.46644 -0.73852,-2.88295 -0.74655,-16.99317 l -0.009,-15.39335 -23.07913,23.05938 c -19.76621,19.74931 -23.30859,23.12122 -24.67768,23.49011 -1.81235,0.4883 -2.37015,0.49601 -3.83111,0.0529 z" />
    <path
       style="fill:#e52d4b;stroke-width:0.39979377"
       d="m 62.443458,698.15004 c -14.432982,-3.78458 -23.332226,-18.67517 -19.686607,-32.94046 3.100853,-12.13365 13.981431,-20.64666 26.388739,-20.64666 14.939379,0 27.175425,12.24555 27.175425,27.19653 0,17.60271 -16.971667,30.82363 -33.877557,26.39059 z" />
  </g>
</svg>
